<?xml version="1.0" encoding="utf-8"?>
<!-- Generator: Adobe Illustrator 28.1.0, SVG Export Plug-In . SVG Version: 6.00 Build 0)  -->
<svg version="1.1" id="Layer_1" xmlns="http://www.w3.org/2000/svg" xmlns:xlink="http://www.w3.org/1999/xlink" x="0px" y="0px"
	 viewBox="0 0 1440 7500" style="enable-background:new 0 0 1440 7500;" xml:space="preserve">
<style type="text/css">
	.st0{fill:url(#SVGID_1_);}
	.st1{display:none;fill:none;stroke:#D92D87;stroke-width:4;stroke-miterlimit:10;}
	.st2{fill:none;stroke:#D92D87;stroke-width:3;stroke-miterlimit:10;}
</style>
<g>
	
		<linearGradient id="SVGID_1_" gradientUnits="userSpaceOnUse" x1="723.6125" y1="7516.3413" x2="723.6125" y2="-17.4754" gradientTransform="matrix(-1 0 0 -1 1447.2251 7495.8164)">
		<stop  offset="0" style="stop-color:#8F91DC"/>
		<stop  offset="0.1417" style="stop-color:#8189DE"/>
		<stop  offset="0.7183" style="stop-color:#4C6CE6"/>
		<stop  offset="1" style="stop-color:#3860E9"/>
	</linearGradient>
	<rect x="-24.6" y="-20.5" class="st0" width="1496.5" height="7567.9"/>
</g>
<path class="st1" d="M1446.8,3377.3c-955.9-19-1176.4,64.1-1191,147.4c-25.6,146.5,555.5,469,813.2,308.3
	c68.7-42.8,121-124.2,174.5-106.7c58.4,19,92.3,147.4,62.7,240.6c-86.1,270.5-766.2,427.4-1047,160.9
	c-51.4-48.8-79.7-102.6-94.9-137.2"/>
<path class="st2" d="M1442.5,6.8C377.6,347.8,143.4,510.4,159.2,594.9c22.6,121.1,539-21.4,803.8,274.2
	c340.4,380.1,66.1,1262.3-327.6,1801.6c-209.1,286.4-504.8,393.8-469,476.5c60.6,140.1,889.3-102.1,908.3-37.2
	c18.9,64.9-807.4,315.1-781.7,461.6c22.7,129.3,692.5,82.6,707.2,193.6c17.1,128.2-867.8,254.3-878.5,498.8
	c-10.2,233.7,792.9,229.6,990.1,714.7c165.2,406.2-290.7,672.5-201,1347.5c63.6,478.8,329.8,621.8,245.7,841.3
	c-77.4,201.8-418.7,383.9-1541.1,327.6"/>
<path class="st2" d="M1435,96.2C370.1,437.1,136,599.7,151.7,684.3c22.6,121.1,539-21.4,803.8,274.2
	c340.4,380.1,66.1,1262.3-327.6,1801.6c-209.1,286.4-504.8,393.8-469,476.5c60.6,140.1,889.3-102.1,908.3-37.2
	c18.9,64.9-807.4,315.1-781.7,461.6c22.7,129.3,692.5,82.6,707.2,193.6c17.1,128.2-867.8,254.3-878.5,498.8
	c-10.2,233.7,792.9,229.6,990.1,714.7c165.2,406.2-290.7,672.5-201,1347.5c63.6,478.8,329.8,621.8,245.7,841.3
	c-77.4,201.8-418.7,383.9-1541.1,327.6"/>
<path class="st2" d="M1435,230.2C370.1,571.1,136,733.7,151.7,818.3c22.6,121.1,539-21.4,803.8,274.2
	c340.4,380.1,66.1,1262.3-327.6,1801.6c-209.1,286.4-504.8,393.8-469,476.5c60.6,140.1,889.3-102.1,908.3-37.2
	c18.9,64.9-807.4,315.1-781.7,461.6c22.7,129.3,692.5,82.6,707.2,193.6c17.1,128.2-867.8,254.3-878.5,498.8
	c-10.2,233.7,792.9,229.6,990.1,714.7c165.2,406.2-290.7,672.5-201,1347.5c63.6,478.8,329.8,621.8,245.7,841.3
	c-77.4,201.8-418.7,383.9-1541.1,327.6"/>
</svg>
